<svg xmlns="http://www.w3.org/2000/svg" width="371" height="82" viewBox="0 0 371 82">
  <defs>
    <style>
      .cls-1 {
        fill-rule: #ffffff;
      }
    </style>
  </defs>
  <path fill="#ffffff" id="nailly_logo" data-name="Nailly" class="cls-1" d="M349.056,44.724V81.577H328.248V44.724L306.24,0.659h24.109l8.3,16.524,8.3-16.524h24.109ZM250.019,77.876a12.758,12.758,0,0,1-5.3-10.9V0.559h21.308V57.642h36.414V81.277H261.923Q254.619,81.277,250.019,77.876Zm-59.822,0a12.758,12.758,0,0,1-5.3-10.9V0.559H206.2V57.642h36.414V81.277H202.1Q194.8,81.277,190.2,77.876ZM157.085,0.659h20.808V81.577H157.085V0.659ZM110.968,33.908L97.063,81.076H70.953L98.463,0.459h24.91l27.611,80.617h-26.21ZM43.242,27.9q0-3.906-2.7-5.007-1.5-.6-6.5-0.6a22.516,22.516,0,0,0-6.6.7,4.866,4.866,0,0,0-3.4,4.923V81.577H0.926V1.26H45.043q9.8,0,15.206,6.509,5.1,6.009,5.1,16.023V81.577H43.242V27.9Z" transform="translate(-0.938 -0.469)"/>
</svg>
