<svg id="Line" viewBox="0 0 64 64" xmlns="http://www.w3.org/2000/svg"><path fill="#ffffff" d="m55.34473 8.6875h-42.03711a4.66 4.66 0 0 0 -4.65528 4.65527v9.21582h-1.65234a3.00328 3.00328 0 0 0 -3 3v26.75391a3.00328 3.00328 0 0 0 3 3h14.45215a3.00328 3.00328 0 0 0 3-3v-1.4707h22.24805a1.0002 1.0002 0 0 0 -.00008-2h-11.38469v-5.07325h20.0293a4.66 4.66 0 0 0 4.65527-4.65527v-25.77051a4.66 4.66 0 0 0 -4.65527-4.65527zm-33.89258 44.625h-14.45215a1.00067 1.00067 0 0 1 -1-1v-26.75391a1.00068 1.00068 0 0 1 1-1c.01.00063 2.64891-.00044 2.65714 0h11.795a1.00068 1.00068 0 0 1 1 1c.00243.00427-.00176 17.21066 0 17.21475v7.07325 2.46591a1.00067 1.00067 0 0 1 -.99999 1zm11.86328-4.4707h-8.86328v-5.07325h8.86328zm24.68457-9.72852a2.65861 2.65861 0 0 1 -2.65527 2.65527c-.0778.00012-21.00228-.00016-21.06786 0h-9.82472v-16.21a3.00328 3.00328 0 0 0 -3-3h-10.79981v-9.21578a2.65861 2.65861 0 0 1 2.65528-2.65527h42.03711a2.65861 2.65861 0 0 1 2.65527 2.65527z"/></svg>